<?xml version="1.0" standalone="no"?>
<!DOCTYPE svg PUBLIC "-//W3C//DTD SVG 20010904//EN"
 "http://www.w3.org/TR/2001/REC-SVG-20010904/DTD/svg10.dtd">
<svg version="1.0" xmlns="http://www.w3.org/2000/svg"
 width="1000.000000pt" height="1000.000000pt" viewBox="0 0 1000.000000 1000.000000"
 preserveAspectRatio="xMidYMid meet">
<metadata>
Created by potrace 1.14, written by Peter Selinger 2001-2017
</metadata>
<g transform="translate(0.000000,1000.000000) scale(0.100000,-0.100000)"
fill="#000000" stroke="none">
<path d="M0 5000 l0 -5000 5000 0 5000 0 0 5000 0 5000 -5000 0 -5000 0 0
-5000z m7277 3071 c137 -8 177 -24 205 -81 32 -68 40 -309 33 -975 -11 -957
-7 -4894 5 -4935 6 -19 10 -127 10 -240 0 -175 -3 -212 -18 -253 -11 -27 -25
-52 -32 -57 -7 -4 -58 -6 -114 -3 -94 5 -103 7 -131 34 -25 23 -33 27 -44 17
-16 -17 -34 6 -61 80 -18 47 -20 76 -19 245 0 120 5 211 13 242 14 54 14 1339
0 2850 -8 841 -8 867 -17 1010 -4 66 -3 93 3 80 7 -15 8 -9 3 20 -3 22 -10 42
-14 43 -5 2 -9 30 -9 62 0 32 -5 62 -10 65 -18 11 -45 -26 -41 -57 2 -20 -2
-28 -13 -28 -9 0 -16 7 -16 15 0 8 -7 15 -15 15 -17 0 -20 17 -4 22 16 5 -22
64 -41 63 -8 -1 -21 3 -27 8 -9 7 -13 5 -13 -7 0 -9 -4 -16 -9 -16 -21 0 -29
32 -34 130 -3 63 -9 106 -16 108 -7 2 -11 -12 -11 -37 0 -30 -4 -41 -15 -41
-12 0 -15 14 -15 65 0 40 4 65 11 65 6 0 10 16 8 38 -2 52 12 146 21 132 5 -8
9 -6 14 6 4 12 1 23 -8 29 -19 14 -33 129 -17 139 6 4 11 20 11 37 0 22 5 29
20 29 11 0 20 7 20 15 0 8 -9 15 -20 15 -14 0 -21 -9 -26 -35 -3 -19 -12 -35
-19 -35 -28 0 -75 -35 -75 -56 0 -12 -6 -27 -14 -34 -8 -6 -12 -18 -9 -26 7
-19 -27 -51 -49 -46 -13 2 -18 -3 -18 -17 0 -12 5 -21 10 -21 6 0 10 -7 10
-16 0 -12 -7 -15 -25 -12 -23 5 -25 2 -25 -32 0 -21 -7 -43 -15 -50 -8 -7 -15
-19 -15 -26 0 -8 -7 -14 -15 -14 -8 0 -15 -4 -15 -10 0 -5 7 -10 15 -10 22 0
18 -20 -10 -46 -16 -15 -25 -34 -25 -54 0 -22 -6 -33 -22 -40 -20 -7 -20 -9
-4 -9 15 -1 16 -4 6 -16 -7 -8 -20 -15 -30 -15 -23 0 -70 -38 -70 -56 0 -8 -4
-14 -10 -14 -5 0 -10 -9 -10 -20 0 -11 -9 -25 -20 -32 -11 -7 -20 -18 -20 -25
0 -7 -7 -13 -15 -13 -9 0 -15 -9 -15 -22 0 -26 -16 -13 -22 16 -4 24 -24 32
-31 12 -4 -10 -1 -13 9 -9 13 5 14 -1 9 -31 -5 -25 -4 -36 4 -36 7 0 9 -4 6
-10 -3 -5 -13 -10 -21 -10 -11 0 -13 6 -9 20 4 11 2 20 -4 20 -6 0 -11 -9 -11
-20 0 -11 -6 -19 -12 -18 -7 2 -12 -4 -10 -11 11 -48 -68 -125 -99 -97 -9 8
-11 7 -6 -6 4 -12 -1 -21 -14 -28 -13 -7 -18 -18 -14 -29 3 -10 -4 -26 -15
-39 -11 -12 -23 -35 -27 -52 -3 -19 -11 -29 -18 -26 -8 3 -15 -7 -19 -24 -3
-16 -21 -51 -39 -77 -19 -26 -32 -54 -29 -61 2 -6 -9 -26 -25 -42 -15 -16 -31
-40 -34 -52 -3 -13 -11 -22 -16 -21 -6 1 -17 -5 -25 -14 -9 -12 -9 -15 0 -9 6
4 12 5 12 2 0 -2 3 -11 6 -20 5 -12 -1 -16 -22 -17 -24 0 -26 -2 -10 -8 19 -7
19 -8 -2 -13 -15 -4 -20 -11 -16 -22 4 -10 1 -16 -7 -16 -15 0 -72 -93 -64
-102 3 -3 -1 -11 -10 -18 -8 -7 -15 -19 -15 -27 0 -8 -11 -23 -23 -33 -18 -15
-23 -26 -19 -49 2 -18 0 -31 -6 -31 -17 0 -52 -42 -52 -61 0 -10 -9 -24 -20
-32 -12 -9 -18 -20 -14 -30 7 -20 -14 -60 -28 -51 -7 5 -9 0 -5 -16 4 -16 1
-23 -13 -27 -17 -4 -60 -86 -60 -113 0 -6 -4 -9 -9 -5 -6 3 -13 -11 -17 -32
-6 -31 -8 -34 -15 -18 -7 19 -8 19 -8 -2 -1 -12 -7 -28 -15 -35 -7 -8 -23 -33
-35 -56 -12 -23 -27 -42 -33 -42 -6 0 -9 -3 -5 -6 10 -11 -123 -164 -143 -164
-3 0 -17 -10 -30 -22 -39 -37 -177 -87 -256 -93 -80 -7 -233 17 -246 38 -4 6
-8 9 -8 5 0 -8 -80 30 -90 42 -3 3 -21 17 -40 30 -49 34 -113 100 -129 133 -8
15 -18 27 -21 27 -4 0 -13 14 -20 30 -7 17 -16 30 -20 30 -4 0 -15 19 -26 43
-10 23 -27 49 -37 57 -9 8 -20 26 -22 40 -3 14 -12 30 -21 37 -9 7 -14 19 -11
27 3 8 -3 22 -13 31 -11 10 -26 39 -35 66 -9 27 -22 48 -28 46 -6 -1 -11 3
-12 8 -3 37 -17 66 -30 61 -8 -3 -14 2 -14 12 0 39 -7 58 -29 76 -16 13 -22
26 -19 42 2 13 1 21 -3 19 -4 -3 -11 6 -14 20 -4 14 -12 24 -19 22 -8 -1 -12
11 -12 33 0 31 -3 35 -28 38 -15 2 -25 7 -22 12 3 5 1 20 -5 35 -7 17 -7 24 0
20 6 -3 10 -2 10 3 0 6 -13 15 -30 20 -27 10 -29 13 -20 37 13 34 -1 59 -32
60 -24 0 -29 21 -14 57 5 11 1 20 -13 27 -18 10 -20 9 -16 -6 3 -10 -2 -3 -10
15 -8 17 -20 32 -25 32 -6 0 -10 7 -10 15 0 8 -4 15 -9 15 -5 0 -12 13 -16 30
-4 19 -13 30 -23 30 -13 0 -14 2 -4 8 9 7 8 13 -8 27 -15 14 -19 26 -15 43 4
18 0 28 -15 39 -11 8 -20 21 -20 29 0 8 -7 17 -15 20 -8 4 -15 14 -15 24 0 10
-5 20 -10 22 -6 2 -12 23 -13 47 -1 23 -3 38 -5 32 -7 -20 -32 -11 -38 14 -3
14 -10 25 -15 25 -5 0 -9 9 -9 20 0 11 -4 20 -10 20 -5 0 -10 -6 -10 -12 0 -7
-9 2 -20 20 -11 18 -20 39 -20 47 0 8 -9 20 -20 27 -13 9 -18 19 -14 34 4 16
0 26 -14 33 -11 6 -22 7 -26 3 -4 -3 -4 1 0 11 4 10 1 17 -6 17 -7 0 -10 8 -7
19 3 14 -1 18 -17 16 -25 -2 -56 12 -56 25 0 5 8 11 18 13 11 3 8 5 -9 6 -23
1 -27 7 -33 41 -5 30 -11 40 -25 40 -16 0 -30 21 -35 55 0 6 -6 19 -12 30 -6
11 -14 32 -18 48 -7 32 -26 36 -26 6 0 -11 -4 -17 -10 -14 -5 3 -10 19 -10 36
0 16 -4 29 -10 29 -5 0 -10 11 -10 24 0 33 -16 41 -25 13 -6 -21 -7 -21 -20 8
-8 17 -14 48 -13 70 2 45 -16 85 -36 85 -14 0 -30 29 -21 38 3 3 5 0 5 -6 0
-7 4 -12 10 -12 18 0 4 44 -16 50 -34 9 -81 39 -87 55 -8 19 -27 20 -27 1 0
-7 -7 -19 -15 -26 -9 -8 -13 -21 -9 -32 3 -11 2 -77 -2 -146 -7 -111 -9 -122
-18 -89 -13 52 -26 46 -26 -13 0 -38 4 -50 15 -50 12 0 15 -13 15 -55 0 -42
-3 -55 -15 -55 -8 0 -15 4 -15 9 0 6 -15 11 -32 13 -32 3 -33 4 -30 43 3 45
-16 153 -29 161 -12 7 -11 54 1 54 6 0 10 14 10 30 0 17 -4 30 -10 30 -5 0
-10 16 -10 35 0 19 4 35 9 35 4 0 11 27 15 60 4 33 11 60 16 60 6 0 10 -7 10
-15 0 -8 7 -15 15 -15 8 0 15 5 15 11 0 16 26 39 44 39 9 0 16 7 16 15 0 9 6
12 15 9 8 -4 15 -1 15 5 0 6 -7 11 -15 11 -27 0 -16 24 31 66 36 33 48 51 54
85 6 33 5 46 -5 52 -13 7 -15 51 -2 63 6 6 -13 67 -31 100 -6 11 -17 39 -24
63 -14 48 -73 98 -118 101 -51 4 -115 -1 -128 -9 -18 -11 -6 -141 12 -138 7 1
10 -12 8 -38 -15 -225 -19 -521 -21 -1645 -1 -718 -3 -1372 -6 -1455 -3 -112
-17 -1788 -17 -2105 0 -25 -5 -50 -10 -57 -6 -7 -6 -19 1 -32 13 -24 15 -84 2
-77 -4 3 -7 -11 -5 -32 2 -20 6 -66 9 -102 3 -36 9 -108 12 -161 l6 -97 -46
-60 c-55 -70 -80 -79 -206 -67 -110 10 -118 17 -125 117 -3 46 -8 1375 -9
2953 -4 3115 -3 3221 45 3290 12 18 35 41 51 50 64 38 568 46 637 10 56 -29
94 -98 455 -812 132 -260 243 -473 247 -473 4 0 7 -3 6 -7 -4 -13 54 -123 65
-123 5 0 7 -7 3 -15 -3 -8 -1 -15 4 -15 6 0 10 -6 10 -12 0 -24 46 -108 55
-101 4 5 6 1 3 -7 -3 -8 13 -43 34 -77 21 -35 35 -63 33 -63 -7 0 34 -81 50
-100 7 -8 21 -35 31 -60 10 -25 20 -47 24 -50 4 -3 17 -27 30 -55 29 -62 29
-63 40 -45 7 11 10 3 10 -26 0 -25 6 -47 15 -54 8 -7 15 -18 15 -25 0 -7 6
-18 14 -25 8 -6 12 -18 9 -26 -3 -8 0 -14 6 -14 6 0 11 -7 11 -15 0 -8 7 -15
15 -15 14 0 17 -8 19 -55 1 -13 8 -20 21 -20 16 0 19 -6 17 -28 -2 -17 2 -29
11 -33 8 -3 18 -21 22 -41 4 -23 11 -33 20 -29 14 5 29 -20 19 -35 -3 -5 6
-24 20 -42 15 -19 26 -41 26 -49 0 -18 28 -75 41 -83 5 -4 8 5 7 19 -1 13 -5
23 -9 20 -15 -9 -19 14 -5 25 11 10 16 5 26 -24 6 -19 16 -35 21 -35 5 0 9
-11 9 -25 0 -14 3 -25 8 -26 4 0 17 -2 29 -3 31 -4 42 -16 15 -16 -13 0 -22
-6 -22 -15 0 -9 -7 -18 -15 -21 -8 -4 -15 -12 -15 -20 0 -21 14 -17 25 8 16
34 30 31 44 -8 9 -24 16 -32 21 -24 12 19 23 -7 22 -49 -1 -19 5 -42 12 -50
13 -16 22 -46 32 -106 l5 -30 -15 25 c-19 31 -21 5 -2 -31 7 -14 16 -38 20
-55 4 -16 12 -32 18 -35 5 -3 11 -18 12 -32 3 -25 53 -95 69 -96 5 -1 16 -10
25 -21 13 -16 34 -22 86 -27 53 -5 67 -3 62 6 -5 8 -3 12 5 11 29 -4 58 13 88
50 17 22 31 45 31 54 0 8 3 22 6 31 6 13 9 14 16 3 7 -9 8 -8 4 6 -4 12 1 27
15 42 11 12 18 27 14 33 -3 6 0 11 7 12 9 0 9 2 2 5 -13 5 -7 41 9 62 6 8 10
27 9 43 -1 16 2 29 7 29 5 0 11 13 13 29 4 25 0 31 -19 36 -19 4 -21 8 -11 19
9 10 17 10 30 3 12 -8 20 -7 31 1 18 15 69 113 63 120 -11 10 -35 -8 -38 -30
-4 -20 -5 -21 -12 -5 -13 27 1 47 33 47 20 0 30 6 34 20 4 14 10 18 22 14 15
-6 16 -2 10 34 -6 35 -4 43 12 49 22 8 63 54 63 70 0 19 37 36 44 20 3 -6 3 0
0 15 -4 18 1 37 15 57 12 16 21 33 21 39 0 5 7 15 16 23 9 7 13 21 10 33 -5
21 -5 21 9 2 15 -19 15 -19 15 2 0 24 20 74 34 84 6 4 14 4 19 1 6 -3 8 8 5
26 -2 17 -2 29 0 26 3 -3 13 9 23 25 11 17 23 30 29 30 5 0 6 7 3 17 -4 11 -3
14 5 9 7 -4 14 4 18 20 4 15 13 39 20 53 8 14 14 31 14 37 0 6 9 19 20 29 11
10 20 24 20 32 0 7 4 13 10 13 5 0 13 12 16 27 4 14 14 34 22 44 8 10 25 41
37 70 12 28 24 48 27 43 3 -5 3 -3 1 4 -1 7 3 23 9 35 7 12 11 25 10 30 -1 4
2 7 7 7 12 0 70 102 171 297 15 29 32 58 38 65 6 7 13 24 17 38 3 14 22 50 40
80 19 30 50 84 68 120 71 136 82 155 95 168 6 7 12 20 12 27 0 14 33 78 51
101 5 6 6 13 3 17 -3 3 11 31 31 63 54 83 168 304 158 304 -4 0 -3 4 3 8 10 7
45 67 101 172 38 72 107 166 137 185 26 18 245 36 333 28 28 -2 105 -8 170
-12z m-4384 -901 c8 0 8 -3 1 -10 -12 -12 -44 -3 -44 12 0 6 7 7 16 4 9 -3 21
-6 27 -6z m-53 -30 c0 -5 -4 -10 -10 -10 -5 0 -10 5 -10 10 0 6 5 10 10 10 6
0 10 -4 10 -10z m7 -642 c-3 -8 -6 -5 -6 6 -1 11 2 17 5 13 3 -3 4 -12 1 -19z
m3733 2 c0 -5 -4 -10 -10 -10 -5 0 -10 5 -10 10 0 6 5 10 10 10 6 0 10 -4 10
-10z m-3166 -136 c3 -8 2 -12 -4 -9 -6 3 -10 10 -10 16 0 14 7 11 14 -7z
m3546 -204 c0 -5 -9 -10 -21 -10 -11 0 -17 5 -14 10 3 6 13 10 21 10 8 0 14
-4 14 -10z m-1780 -846 c0 -45 -24 -42 -28 4 -2 24 1 32 12 32 12 0 16 -10 16
-36z"/>
<path d="M6948 7699 c-19 -7 -40 -33 -68 -83 -22 -41 -40 -82 -40 -92 0 -10
-9 -27 -20 -38 -17 -19 -41 -90 -57 -166 -5 -24 -5 -25 11 -5 13 17 17 18 25
6 6 -9 6 -22 0 -32 -10 -19 5 -37 16 -19 9 15 25 12 25 -5 0 -26 37 -35 143
-35 97 0 106 -2 120 -22 12 -18 18 -20 28 -11 9 9 11 49 9 145 -1 73 -3 185
-4 248 l-2 115 -79 2 c-44 1 -92 -3 -107 -8z"/>
<path d="M3095 6930 c3 -5 8 -10 11 -10 2 0 4 5 4 10 0 6 -5 10 -11 10 -5 0
-7 -4 -4 -10z"/>
<path d="M6841 6884 c0 -11 3 -14 6 -6 3 7 2 16 -1 19 -3 4 -6 -2 -5 -13z"/>
<path d="M6840 6585 c0 -29 0 -29 36 -10 37 19 37 27 -3 31 -29 3 -33 1 -33
-21z"/>
<path d="M7040 6365 c-8 -9 -8 -15 -2 -15 12 0 26 19 19 26 -2 2 -10 -2 -17
-11z"/>
<path d="M3755 5860 c-3 -5 -1 -10 4 -10 6 0 11 5 11 10 0 6 -2 10 -4 10 -3 0
-8 -4 -11 -10z"/>
<path d="M4470 5355 c0 -15 18 -40 24 -34 3 3 -1 14 -9 25 -8 10 -14 15 -15 9z"/>
<path d="M4530 5250 c0 -33 15 -41 22 -12 6 21 -1 42 -13 42 -5 0 -9 -13 -9
-30z"/>
</g>
</svg>
