<?xml version="1.0" encoding="utf-8"?>
<!-- Svg Vector Icons : http://www.onlinewebfonts.com/icon -->
<!DOCTYPE svg PUBLIC "-//W3C//DTD SVG 1.1//EN" "http://www.w3.org/Graphics/SVG/1.1/DTD/svg11.dtd">
<svg version="1.1" xmlns="http://www.w3.org/2000/svg" xmlns:xlink="http://www.w3.org/1999/xlink" x="0px" y="0px" viewBox="0 0 1000 1000" enable-background="new 0 0 1000 1000" xml:space="preserve">
<metadata> Svg Vector Icons : http://www.onlinewebfonts.com/icon </metadata>
<g><g transform="matrix(1 0 0 -1 0 1008)"><path d="M500,985.8c134.8,0,250.2-48,346.1-143.9C942,746,990,630.6,990,495.8c0-106.9-31.1-202.9-93.3-287.8C834.4,123.1,754.1,64.1,655.6,31.1c-11.7-1.9-20.3-0.5-25.8,4.4c-5.5,4.9-8.3,11.2-8.3,19c0,1.3,0.2,17.5,0.5,48.6s0.5,59.6,0.5,85.6c0,40.8-11.3,71.3-34,91.4c24.6,2.6,46.7,6.3,66.1,11.2c19.4,4.9,39.4,13.1,59.8,24.8s37.4,25.9,51,42.8c13.6,16.9,24.8,39.1,33.5,66.6c8.8,27.5,13.1,59.5,13.1,95.8c0,51.2-16.5,95.3-49.6,132.2c15.6,37.6,13.9,80.7-4.9,129.3c-12.3,3.9-29.8,1.6-52.5-6.8c-22.7-8.4-42.1-17.8-58.3-28.2L622.5,732c-40.2,11-81,16.5-122.5,16.5S417.7,743,377.5,732c-7.1,4.5-16.2,10.4-27.2,17.5c-11,7.1-28.7,15.4-53,24.8c-24.3,9.4-42.6,12.2-54.9,8.3c-18.8-48.6-20.4-91.7-4.9-129.3c-33.7-37.6-50.6-81.7-50.6-132.2c0-36.3,4.4-68.2,13.1-95.8c8.8-27.5,19.9-49.7,33.5-66.6c13.6-16.9,30.8-31.1,51.5-42.8s40.7-20.1,59.8-25.3s41-9.1,65.6-11.7c-16.2-13.6-26.6-35.3-31.1-65.1c-13.6-5.8-27.2-10-40.8-12.6c-13.6-2.6-30.6-0.2-51,7.3c-20.4,7.5-37.4,22.8-51,46.2c-7.8,13.6-18,24.6-30.6,33.1s-23.2,13.6-31.6,15.6l-12.6,1.9c-9.1,0-15.2-1-18.5-2.9c-3.2-1.9-4.2-4.5-2.9-7.8s3.2-6.3,5.8-9.2c2.6-2.9,5.2-5.3,7.8-7.3l4.9-2.9c9.7-4.5,19.1-12.8,28.2-24.8c9.1-12,15.6-22.8,19.4-32.6l6.8-14.6c5.2-17.5,14.4-31.8,27.7-42.8c13.3-11,27.5-18.1,42.8-21.4c15.2-3.2,30-5,44.2-5.3c14.3-0.3,26.3,0.5,36,2.4l13.6,1.9c0.6-27.2,1-55.1,1-83.6c0-7.8-2.8-14.1-8.3-19c-5.5-4.9-13.8-6.3-24.8-4.4c-99.2,32.4-179.9,91.2-242.1,176.5C41.1,292.7,10,388.8,10,495.8C10,630.6,58,746,153.9,841.9C249.8,937.8,365.2,985.8,500,985.8z"/></g></g>
</svg>